<svg xmlns="http://www.w3.org/2000/svg" width="200" height="64.374" viewBox="0 0 200 64.374">
  <g id="Group_9" data-name="Group 9" transform="translate(-171.999 -215.567)">
    <path id="Path_33" data-name="Path 33" d="M200.118,253.049s2.548-14.955-5.1-22.609-22.607-5.1-22.607-5.1-2.549,14.954,5.107,22.608,22.6,5.106,22.6,5.106" transform="translate(0 -5.684)" fill="#0076aa"/>
    <path id="Path_34" data-name="Path 34" d="M277.8,225.335s-14.96-2.545-22.609,5.1-5.108,22.609-5.108,22.609,14.957,2.547,22.609-5.106,5.107-22.608,5.107-22.608" transform="translate(-47.168 -5.684)" fill="#0076aa"/>
    <path id="Path_35" data-name="Path 35" d="M201.058,304.791c-4.969,4.965-3.318,14.674-3.318,14.674s9.709,1.65,14.677-3.316,3.313-14.67,3.313-14.67-9.711-1.654-14.672,3.311" transform="translate(-15.467 -52.007)" fill="#00a88e"/>
    <path id="Path_36" data-name="Path 36" d="M249.948,301.48s-1.652,9.708,3.307,14.67,14.676,3.316,14.676,3.316,1.652-9.7-3.317-14.67-14.667-3.315-14.667-3.315" transform="translate(-47.169 -52.008)" fill="#00a88e"/>
    <path id="Path_37" data-name="Path 37" d="M326.774,301.77a28.225,28.225,0,0,0-9.51,1.62v28.9h5.286v-8.822a10.789,10.789,0,0,0,5.2,1.237c5.8,0,9.416-2.639,9.416-11.468,0-8.869-3.235-11.465-10.394-11.465m.039,18.465c-2.342,0-4.263-.815-4.263-2.1V306.962a13.115,13.115,0,0,1,4.224-.635c3.745,0,4.989,1.064,4.989,7.036,0,5.371-1.244,6.872-4.951,6.872" transform="translate(-88.203 -52.349)" fill="#00a88e"/>
    <path id="Path_38" data-name="Path 38" d="M380.665,304.031v-1.623h-5.281v21.7h5.281V309.062c0-1.582,2.345-2.435,4.992-2.435a13.722,13.722,0,0,1,2.77.3V301.9a20.06,20.06,0,0,0-2.213-.127c-3.118,0-4.777,1.065-5.549,2.261" transform="translate(-123.492 -52.349)" fill="#00a88e"/>
    <rect id="Rectangle_26" data-name="Rectangle 26" width="5.284" height="21.692" transform="translate(267.427 250.062)" fill="#00a88e"/>
    <path id="Path_39" data-name="Path 39" d="M447.932,292.347a14.048,14.048,0,0,0-5.972,1.5v-7.595h-5.288V314.68h5.288V299.036c0-1.277,2.007-1.916,4.18-1.916,2.852,0,4.341.9,4.341,5.5V314.68h5.284V302.194c0-8.1-2.765-9.847-7.833-9.847" transform="translate(-160.707 -42.926)" fill="#00a88e"/>
    <path id="Path_40" data-name="Path 40" d="M501.678,301.77c-6.866,0-10.319,2.516-10.319,11.38,0,8.915,3.411,11.554,10.319,11.554,7,0,10.4-2.639,10.4-11.554,0-8.865-3.453-11.38-10.4-11.38m0,18.669c-3.71,0-4.861-1.189-4.861-7.2,0-6.223,1.151-7.2,4.861-7.2,3.795,0,4.942.977,4.942,7.2,0,6.014-1.147,7.2-4.942,7.2" transform="translate(-193.912 -52.349)" fill="#00a88e"/>
    <path id="Path_41" data-name="Path 41" d="M564.091,293.453a10.144,10.144,0,0,0-5.2-1.239c-5.8,0-9.424,2.684-9.424,11.465,0,8.911,3.283,11.468,10.452,11.468a29.347,29.347,0,0,0,9.458-1.572V286.029h-5.286m0,23.966a13.989,13.989,0,0,1-4.172.633c-3.754,0-4.995-1.112-4.995-7.034,0-5.415,1.2-6.9,4.906-6.9,2.391,0,4.261.813,4.261,2.086Z" transform="translate(-229.195 -42.793)" fill="#00a88e"/>
    <path id="Path_42" data-name="Path 42" d="M616.034,301.77a35.951,35.951,0,0,0-8.645,1.148l.973,4.353a20.222,20.222,0,0,1,6.563-1.066c4.517,0,5.419.931,5.419,4.724a26,26,0,0,0-5.369-.591c-5.075,0-8.532.981-8.532,7.123,0,5.671,2.3,7.243,9.174,7.243a30.107,30.107,0,0,0,9.8-1.7V310.211c0-6.479-2.937-8.441-9.382-8.441m4.311,18.159a13.793,13.793,0,0,1-4.351.72c-3.195,0-4-.465-4-3.408,0-2.766,1.062-3.11,4.044-3.11a21.355,21.355,0,0,1,4.311.387Z" transform="translate(-263.793 -52.349)" fill="#00a88e"/>
    <path id="Path_43" data-name="Path 43" d="M666.332,337.869a3.569,3.569,0,1,0,3.61,3.569,3.591,3.591,0,0,0-3.61-3.569m0,6.555a2.984,2.984,0,1,1,2.872-2.986,2.893,2.893,0,0,1-2.872,2.986" transform="translate(-297.943 -74.264)" fill="#00a88e"/>
    <path id="Path_44" data-name="Path 44" d="M671.478,342.9c0-.819-.494-1.165-1.466-1.165h-1.539v4.106h.631v-1.771h.713l1.055,1.771h.7l-1.173-1.817a1.066,1.066,0,0,0,1.082-1.124m-2.374.629v-1.279h.821c.433,0,.885.108.885.607,0,.649-.452.672-.972.672Z" transform="translate(-301.449 -76.609)" fill="#00a88e"/>
    <rect id="Rectangle_27" data-name="Rectangle 27" width="20.827" height="3.732" transform="translate(251.927 243.331)" fill="#00a88e"/>
    <path id="Path_45" data-name="Path 45" d="M230.954,226.968a1.107,1.107,0,0,1-.911-.476l-6.3-9.215a1.09,1.09,0,1,1,1.8-1.231l6.3,9.212a1.092,1.092,0,0,1-.894,1.71" transform="translate(-31.296)" fill="#0076aa"/>
    <path id="Path_46" data-name="Path 46" d="M247.483,226.968a1.1,1.1,0,0,1-.616-.195,1.087,1.087,0,0,1-.282-1.516l6.311-9.212a1.088,1.088,0,1,1,1.793,1.231l-6.3,9.215a1.1,1.1,0,0,1-.9.476" transform="translate(-45.162)" fill="#0076aa"/>
  </g>
</svg>
